<svg width="16" height="16" viewBox="0 0 16 16" fill="none" xmlns="http://www.w3.org/2000/svg">
<path d="M3.01852 5.56373C2.81476 6.68697 3.08108 7.78509 3.62658 8.60379L3.7863 8.12488C4.2122 6.84792 4.7234 5.58132 5.59754 4.55765C6.02482 4.05727 6.422 3.64546 6.75259 3.13974C7.13393 2.55638 7.42776 1.82291 7.17787 1.17231C7.01791 0.755822 6.664 0.487654 6.22565 0.0078125C6.40342 0.817203 5.75305 1.52541 5.21376 2.15461L4.7218 2.7286C3.99295 3.57896 3.21843 4.46174 3.01852 5.56373Z" fill="#1A94D9"/>
<path d="M4.56743 7.6407C4.20009 9.12904 4.51558 10.8889 5.22592 12.0017C5.62096 10.0261 6.43665 8.15055 7.86205 6.72669C8.4535 6.13589 8.9854 5.5889 9.39084 4.91578C9.73731 4.34056 9.9583 3.65826 9.81918 3.00132C9.64911 2.19817 9.05596 1.72842 8.42443 1.00684C8.72919 2.45519 7.68983 3.74048 6.64326 4.78705L6.35068 5.07963C5.60177 5.82853 4.82121 6.61244 4.56743 7.6407Z" fill="#1A94D9"/>
<path d="M6.15959 11.0444C5.76358 12.9177 6.25619 14.7488 7.23854 15.9999L7.33654 14.986C7.5268 13.0176 8.15747 11.1096 9.64219 9.80339C10.3423 9.18743 11.1077 8.53679 11.8072 7.78147C12.7009 6.81646 13.2436 5.44668 12.6258 4.28553C12.2841 3.6432 11.7716 3.02697 11.2241 2.40625C11.2531 2.54294 11.2636 2.68998 11.2598 2.84296C11.2216 4.34597 10.0982 5.56132 9.0659 6.65439C7.84053 7.95184 6.52871 9.29839 6.15959 11.0444Z" fill="#CFDA2F"/>
</svg>
